<svg width="22" height="22" viewBox="0 0 22 22" fill="none" xmlns="http://www.w3.org/2000/svg">
<path opacity="0.3" d="M10.9995 10.948C13.7467 10.948 15.9737 8.72103 15.9737 5.97389C15.9737 3.22675 13.7467 0.999756 10.9995 0.999756C8.25239 0.999756 6.02539 3.22675 6.02539 5.97389C6.02539 8.72103 8.25239 10.948 10.9995 10.948Z" fill="#F8D7A1"/>
<path opacity="0.3" d="M10.9999 13.7157C7.68382 13.7157 1.07715 15.3737 1.07715 18.6898V20.3479H20.9227V18.6898C20.9227 15.3737 14.316 13.7157 10.9999 13.7157Z" fill="#F8D7A1"/>
<path d="M10.9995 10.948C13.7467 10.948 15.9737 8.72103 15.9737 5.97389C15.9737 3.22675 13.7467 0.999756 10.9995 0.999756C8.25239 0.999756 6.02539 3.22675 6.02539 5.97389C6.02539 8.72103 8.25239 10.948 10.9995 10.948Z" stroke="#F1AE42" stroke-width="1.6"/>
<path d="M10.9999 13.7157C7.68382 13.7157 1.07715 15.3737 1.07715 18.6898V20.3479H20.9227V18.6898C20.9227 15.3737 14.316 13.7157 10.9999 13.7157Z" stroke="#F1AE42" stroke-width="1.6"/>
</svg>
