<svg width="24" height="25" viewBox="0 0 24 25" fill="none" xmlns="http://www.w3.org/2000/svg">
<path d="M9.2743 12.5015C11.0441 12.5015 12.4788 11.0668 12.4788 9.297C12.4788 7.52722 11.0441 6.09253 9.2743 6.09253C7.50452 6.09253 6.06982 7.52722 6.06982 9.297C6.06982 11.0668 7.50452 12.5015 9.2743 12.5015Z" fill="#E9E9EA"/>
<path d="M9.27435 14.9824C7.13803 14.9824 2.88184 16.0506 2.88184 18.1869V19.2551H15.6669V18.1869C15.6669 16.0506 11.4107 14.9824 9.27435 14.9824Z" fill="#E9E9EA"/>
<path d="M9.2743 12.5015C11.0441 12.5015 12.4788 11.0668 12.4788 9.297C12.4788 7.52722 11.0441 6.09253 9.2743 6.09253C7.50452 6.09253 6.06982 7.52722 6.06982 9.297C6.06982 11.0668 7.50452 12.5015 9.2743 12.5015Z" stroke="#05050B" stroke-width="1.6"/>
<path d="M9.27435 14.9824C7.13803 14.9824 2.88184 16.0506 2.88184 18.1869V19.2551H15.6669V18.1869C15.6669 16.0506 11.4107 14.9824 9.27435 14.9824Z" stroke="#05050B" stroke-width="1.6"/>
<path d="M18.1494 9.04492V14.9824" stroke="#05050B" stroke-width="1.6" stroke-linecap="round"/>
<path d="M21.1182 12.0137L15.1807 12.0137" stroke="#05050B" stroke-width="1.6" stroke-linecap="round"/>
</svg>
