<svg width="24" height="25" viewBox="0 0 24 25" fill="none" xmlns="http://www.w3.org/2000/svg">
<path fill-rule="evenodd" clip-rule="evenodd" d="M11.8829 7.20776C11.1978 6.27322 10.0252 4.67383 7.76013 4.67383C5.49341 4.67383 3.94678 6.94049 3.94678 8.56716V8.56721C3.94678 10.1939 3.94678 13.2072 12 20.6736V20.6738C12 20.6738 12.0001 20.6738 12.0001 20.6737C12.0001 20.6738 12.0002 20.6738 12.0002 20.6738V20.6736C20.0534 13.2072 20.0534 10.1939 20.0534 8.56721V8.56716C20.0534 6.94049 18.5068 4.67383 16.2401 4.67383C13.975 4.67383 12.8025 6.27322 12.1173 7.20776C12.0766 7.26336 12.0375 7.31661 12.0001 7.36703C11.9627 7.31661 11.9236 7.26336 11.8829 7.20776Z" fill="#E9E9EA"/>
<path fill-rule="evenodd" clip-rule="evenodd" d="M11.8829 7.20776C11.1978 6.27322 10.0252 4.67383 7.76013 4.67383C5.49341 4.67383 3.94678 6.94049 3.94678 8.56716V8.56721C3.94678 10.1939 3.94678 13.2072 12 20.6736V20.6738C12 20.6738 12.0001 20.6738 12.0001 20.6737C12.0001 20.6738 12.0002 20.6738 12.0002 20.6738V20.6736C20.0534 13.2072 20.0534 10.1939 20.0534 8.56721V8.56716C20.0534 6.94049 18.5068 4.67383 16.2401 4.67383C13.975 4.67383 12.8025 6.27322 12.1173 7.20776C12.0766 7.26336 12.0376 7.31661 12.0001 7.36703C11.9627 7.31661 11.9236 7.26336 11.8829 7.20776Z" stroke="#05050B" stroke-width="1.6" stroke-linejoin="round"/>
</svg>
