<svg width="19" height="20" viewBox="0 0 19 20" fill="none" xmlns="http://www.w3.org/2000/svg">
<g clip-path="url(#clip0_87_1336)">
<circle cx="9.5" cy="10.1738" r="9.5" fill="#E9E9EA"/>
<path d="M10.328 12.3846H8.36377C8.36891 11.9224 8.40485 11.5244 8.47161 11.1906C8.54351 10.8517 8.66419 10.5462 8.83365 10.274C9.00825 10.0018 9.23934 9.73221 9.52691 9.46518C9.76827 9.2495 9.97882 9.04409 10.1586 8.84895C10.3383 8.6538 10.4795 8.45353 10.5822 8.24812C10.6849 8.03757 10.7363 7.80392 10.7363 7.54715C10.7363 7.2493 10.6901 7.00281 10.5976 6.80767C10.5103 6.60739 10.3768 6.4559 10.1971 6.3532C10.0225 6.25049 9.80165 6.19914 9.53462 6.19914C9.3138 6.19914 9.10839 6.24792 8.91838 6.34549C8.72838 6.43793 8.57175 6.58172 8.4485 6.77686C8.33039 6.972 8.26877 7.22876 8.26363 7.54715H6.02979C6.04519 6.84362 6.20695 6.26333 6.51507 5.80629C6.82832 5.34411 7.24685 5.00262 7.77065 4.7818C8.29445 4.55585 8.88244 4.44287 9.53462 4.44287C10.2536 4.44287 10.8698 4.56098 11.3833 4.79721C11.8968 5.02829 12.2897 5.36979 12.5619 5.8217C12.834 6.26847 12.9701 6.81281 12.9701 7.45472C12.9701 7.90149 12.8828 8.29947 12.7082 8.64867C12.5336 8.99273 12.3051 9.31369 12.0227 9.61154C11.7402 9.90938 11.4295 10.2175 11.0906 10.5359C10.7979 10.7978 10.5976 11.0725 10.4898 11.3601C10.3871 11.6477 10.3332 11.9892 10.328 12.3846ZM8.13268 14.7648C8.13268 14.4361 8.24566 14.164 8.47161 13.9483C8.69757 13.7275 9.00055 13.6171 9.38056 13.6171C9.75543 13.6171 10.0558 13.7275 10.2818 13.9483C10.5129 14.164 10.6284 14.4361 10.6284 14.7648C10.6284 15.0832 10.5129 15.3528 10.2818 15.5736C10.0558 15.7944 9.75543 15.9048 9.38056 15.9048C9.00055 15.9048 8.69757 15.7944 8.47161 15.5736C8.24566 15.3528 8.13268 15.0832 8.13268 14.7648Z" fill="white"/>
</g>
<defs>
<clipPath id="clip0_87_1336">
<rect width="19" height="19" fill="white" transform="translate(0 0.673828)"/>
</clipPath>
</defs>
</svg>
