<svg width="24" height="25" viewBox="0 0 24 25" fill="none" xmlns="http://www.w3.org/2000/svg">
<g clip-path="url(#clip0_61_575)">
<rect opacity="0.3" x="1.19849" y="1.87256" width="21.603" height="21.603" rx="1" fill="#FBE7C7"/>
<path d="M12.96 19.8741C11.5466 19.8741 10.2666 19.5675 9.11998 18.9541C7.98665 18.3275 7.09331 17.4675 6.43998 16.3741C5.79998 15.2808 5.47998 14.0475 5.47998 12.6741C5.47998 11.3008 5.80665 10.0675 6.45998 8.97412C7.11331 7.88079 8.00665 7.02745 9.13998 6.41412C10.2866 5.78745 11.5666 5.47412 12.98 5.47412C14.1266 5.47412 15.1733 5.67412 16.12 6.07412C17.0666 6.47412 17.8666 7.05412 18.52 7.81412L16.84 9.39412C15.8266 8.30079 14.58 7.75412 13.1 7.75412C12.14 7.75412 11.28 7.96745 10.52 8.39412C9.75998 8.80745 9.16665 9.38745 8.73998 10.1341C8.31331 10.8808 8.09998 11.7275 8.09998 12.6741C8.09998 13.6208 8.31331 14.4675 8.73998 15.2141C9.16665 15.9608 9.75998 16.5475 10.52 16.9741C11.28 17.3875 12.14 17.5941 13.1 17.5941C14.58 17.5941 15.8266 17.0408 16.84 15.9341L18.52 17.5341C17.8666 18.2941 17.06 18.8741 16.1 19.2741C15.1533 19.6741 14.1066 19.8741 12.96 19.8741Z" fill="#F1AE42"/>
<rect x="1.19849" y="1.87231" width="21.603" height="21.603" rx="1" stroke="#F1AE42" stroke-width="1.6"/>
</g>
<defs>
<clipPath id="clip0_61_575">
<rect width="24" height="24" fill="white" transform="translate(0 0.673828)"/>
</clipPath>
</defs>
</svg>
