<svg width="24" height="25" viewBox="0 0 24 25" fill="none" xmlns="http://www.w3.org/2000/svg">
<path d="M22.8878 12.7295C22.2421 13.9653 18.0132 18.3739 12 18.3739C5.98674 18.3739 2.18081 14.4997 1.11206 12.7295C1.91362 11.1598 5.98674 6.97388 12 6.97388C18.0132 6.97388 22.3312 11.6497 22.8878 12.7295Z" fill="#E9E9EA"/>
<circle cx="11.9996" cy="12.7296" r="4.99863" stroke="#05050B" stroke-width="1.6"/>
<path d="M22.8878 12.7295C22.2421 13.9653 18.0132 18.3739 12 18.3739C5.98674 18.3739 2.18081 14.4997 1.11206 12.7295C1.91362 11.1598 5.98674 6.97388 12 6.97388C18.0132 6.97388 22.3312 11.6497 22.8878 12.7295Z" stroke="#05050B" stroke-width="1.6"/>
<circle cx="11.9998" cy="12.7295" r="2.19316" fill="#05050B"/>
</svg>
